<?xml version="1.0" encoding="UTF-8"?>
<svg xmlns="http://www.w3.org/2000/svg" xmlns:xlink="http://www.w3.org/1999/xlink" width="165pt" height="165.000002pt" viewBox="0 0 165 165.000002" version="1.2">
<defs>
<clipPath id="clip1">
  <path d="M 26.75 111 L 46 111 L 46 131 L 26.75 131 Z M 26.75 111 "/>
</clipPath>
<clipPath id="clip2">
  <path d="M 41.515625 24.601562 L 138.570312 24.601562 L 138.570312 139.40625 L 41.515625 139.40625 Z M 41.515625 24.601562 "/>
</clipPath>
</defs>
<g id="surface1">
<g clip-path="url(#clip1)" clip-rule="nonzero">
<path style=" stroke:none;fill-rule:evenodd;fill:rgb(0%,0%,0%);fill-opacity:1;" d="M 45.285156 120.988281 C 45.285156 126.054688 41.15625 130.164062 36.058594 130.164062 C 30.964844 130.164062 26.832031 126.054688 26.832031 120.988281 C 26.832031 115.925781 30.964844 111.816406 36.058594 111.816406 C 41.15625 111.816406 45.285156 115.925781 45.285156 120.988281 "/>
</g>
<g clip-path="url(#clip2)" clip-rule="nonzero">
<path style=" stroke:none;fill-rule:evenodd;fill:rgb(0%,0%,0%);fill-opacity:1;" d="M 50.269531 56.285156 C 50.484375 55.984375 50.652344 55.5625 50.8125 55.441406 C 51.058594 55.253906 51.378906 55.324219 51.273438 55.59375 C 51.015625 56.277344 50.558594 57.140625 49.808594 57.203125 C 49.71875 56.859375 50.054688 56.59375 50.269531 56.285156 Z M 47.574219 57.816406 C 47.988281 58.070312 48.246094 57.585938 48.578125 57.511719 C 48.71875 57.871094 48.484375 58.011719 48.730469 58.199219 C 49.105469 58.484375 49.402344 57.847656 49.734375 57.664062 C 49.875 58.160156 50.460938 58.554688 51.042969 58.199219 C 51.101562 58.164062 51.125 58.089844 51.199219 58.046875 C 51.234375 58.027344 51.390625 58.007812 51.429688 57.96875 C 51.773438 57.652344 51.835938 57.113281 52.277344 56.898438 C 52.660156 56.710938 53.425781 56.847656 54.203125 56.667969 C 54.5625 56.585938 54.871094 56.300781 55.128906 56.285156 C 55.429688 56.265625 55.734375 56.460938 55.976562 56.4375 C 56.183594 56.417969 56.488281 56.328125 56.671875 56.207031 C 56.894531 56.0625 56.941406 55.789062 57.136719 55.746094 C 57.542969 55.664062 59.003906 56.1875 59.527344 56.359375 C 60.363281 56.636719 61.152344 56.882812 61.761719 57.050781 C 63.515625 57.535156 65.726562 58.242188 68.316406 58.046875 C 68.996094 57.996094 69.664062 57.859375 70.164062 57.664062 C 70.617188 57.488281 71.007812 57.179688 71.476562 56.898438 C 71.601562 56.824219 71.785156 56.683594 71.863281 56.667969 C 72.054688 56.628906 73.636719 56.730469 73.558594 56.667969 C 73.742188 56.816406 73.601562 58 73.636719 58.429688 C 73.71875 59.492188 74.109375 60.710938 74.484375 61.957031 C 74.648438 62.507812 74.789062 62.898438 74.871094 63.71875 C 74.929688 64.347656 74.929688 65.019531 75.023438 65.710938 C 75.136719 66.535156 75.359375 67.3125 75.410156 68.167969 C 75.4375 68.667969 75.355469 69.164062 75.332031 69.699219 C 75.28125 70.824219 75.441406 71.960938 75.179688 72.996094 C 75.066406 73.4375 74.667969 73.964844 74.714844 74.453125 C 74.75 74.804688 75.03125 75.089844 75.257812 75.371094 C 75.484375 75.660156 75.847656 75.890625 75.871094 76.140625 C 75.914062 76.546875 75.523438 76.71875 75.488281 77.058594 C 75.460938 77.300781 75.605469 77.5 75.640625 77.75 C 75.792969 78.773438 75.832031 80.417969 75.257812 81.042969 C 75.144531 81.164062 74.945312 81.386719 74.714844 81.503906 C 74.410156 81.664062 74 81.660156 73.636719 81.8125 C 73.027344 82.070312 72.460938 82.527344 71.863281 82.808594 C 71.507812 82.976562 71.167969 83.023438 70.859375 83.191406 C 70.316406 83.488281 69.835938 83.980469 69.316406 84.417969 C 68.597656 85.03125 67.90625 85.667969 67.160156 86.410156 C 66.714844 86.851562 66.167969 87.242188 65.695312 87.714844 C 64.773438 88.628906 63.796875 89.449219 62.839844 90.398438 C 62.335938 90.898438 61.902344 91.488281 61.453125 91.777344 C 61.136719 91.980469 60.453125 92.0625 60.375 92.390625 C 60.332031 92.5625 60.9375 93.597656 61.144531 93.925781 C 61.300781 94.171875 61.445312 94.203125 61.453125 94.382812 C 61.464844 94.652344 61.121094 95.179688 60.835938 95.6875 C 60.394531 96.480469 59.984375 97.285156 59.371094 97.984375 C 58.796875 98.644531 58.5 99.039062 58.136719 99.980469 C 57.601562 101.359375 56.992188 102.90625 57.367188 104.65625 C 57.449219 105.03125 57.640625 105.375 57.597656 105.574219 C 57.539062 105.859375 57.289062 105.632812 57.136719 105.960938 C 56.878906 106.5 57.328125 108.164062 57.367188 108.949219 C 57.382812 109.257812 57.382812 109.554688 57.367188 109.871094 C 57.25 112.34375 56.859375 115.105469 56.75 117.535156 C 56.707031 118.480469 56.722656 119.28125 56.671875 120.292969 C 56.5625 122.515625 55.933594 125.058594 55.515625 127.195312 C 55.261719 128.484375 55.21875 129.421875 54.589844 130.335938 C 54.4375 130.558594 54.023438 131.023438 53.972656 131.027344 C 53.632812 131.058594 53.933594 130.925781 53.433594 130.71875 C 53.273438 131.03125 53.070312 131.261719 52.894531 131.488281 C 52.730469 131.691406 52.566406 131.988281 52.355469 132.175781 C 52.242188 132.273438 52.046875 132.292969 51.890625 132.40625 C 51.757812 132.507812 51.710938 132.710938 51.582031 132.789062 C 51.503906 132.839844 51.285156 132.851562 51.121094 132.945312 C 51.023438 132.996094 50.90625 133.132812 50.8125 133.171875 C 50.570312 133.28125 50.257812 133.269531 50.042969 133.402344 C 49.886719 133.5 49.554688 133.464844 49.269531 133.558594 C 49.113281 133.609375 49.007812 133.757812 48.882812 133.789062 C 48.710938 133.828125 48.480469 133.746094 48.265625 133.789062 C 48.132812 133.8125 48.09375 133.886719 47.804688 133.941406 C 46.820312 134.128906 45.496094 134.3125 44.410156 134.554688 C 43.078125 134.851562 42.515625 134.960938 42.023438 135.933594 C 41.976562 136.027344 41.941406 136.175781 41.867188 136.316406 C 41.785156 136.472656 41.632812 136.574219 41.636719 136.625 C 41.695312 137.257812 42.757812 137.074219 42.714844 137.925781 C 43.171875 137.824219 43.3125 137.71875 43.796875 137.925781 C 43.945312 137.992188 44.140625 138.046875 44.179688 138.078125 C 44.40625 138.253906 44.386719 138.480469 44.566406 138.617188 C 44.8125 138.867188 44.867188 138.359375 45.105469 138.308594 C 45.1875 138.292969 45.410156 138.433594 45.644531 138.464844 C 45.925781 138.496094 46.261719 138.433594 46.339844 138.464844 C 46.621094 138.570312 46.609375 138.898438 46.878906 138.921875 C 47.347656 138.660156 47.183594 138.253906 48.035156 138.464844 C 48.296875 138.527344 48.292969 138.527344 48.421875 138.691406 C 48.53125 138.835938 48.417969 138.992188 48.652344 139 C 49.027344 139.011719 48.882812 138.613281 49.191406 138.464844 C 49.53125 138.300781 50.382812 138.460938 50.890625 138.464844 C 51.933594 138.464844 53.628906 138.4375 54.976562 138.539062 C 55.410156 138.574219 55.980469 138.578125 56.054688 138.617188 C 56.28125 138.730469 56.375 139.710938 57.058594 139.230469 C 57.144531 139.167969 57.097656 139.003906 57.289062 138.921875 C 57.398438 138.878906 57.5625 138.957031 57.675781 138.921875 C 57.707031 138.914062 57.8125 138.773438 57.832031 138.769531 C 58.238281 138.699219 59.140625 138.667969 59.371094 138.769531 C 59.613281 138.875 59.433594 138.730469 59.601562 139.078125 C 59.683594 139.242188 59.679688 139.339844 59.835938 139.382812 C 60.179688 139.480469 60.292969 139.222656 60.527344 139.078125 C 60.71875 138.957031 60.773438 139.085938 60.914062 138.921875 C 61 138.820312 60.9375 138.683594 61.066406 138.617188 C 61.328125 138.480469 61.792969 138.628906 61.992188 138.386719 C 62.113281 138.238281 61.945312 138.109375 61.992188 137.773438 C 62.019531 137.574219 62.214844 137.28125 62.300781 137.007812 C 62.652344 135.890625 62.933594 134.242188 62.53125 132.867188 C 62.457031 132.617188 62.296875 132.410156 62.222656 132.175781 C 62.050781 131.617188 62.136719 130.953125 61.992188 130.71875 C 61.914062 130.59375 61.566406 130.546875 61.53125 130.414062 C 61.429688 130.027344 61.886719 128.648438 61.992188 128.113281 C 62.160156 127.265625 62.285156 126.429688 62.457031 125.8125 C 62.890625 124.253906 63.367188 122.964844 63.765625 121.675781 C 64.082031 120.652344 64.316406 119.820312 64.847656 118.914062 C 64.996094 118.65625 65.277344 118.222656 65.464844 117.839844 C 66.65625 115.382812 66.597656 112.707031 66.3125 109.484375 C 66.253906 108.835938 66.203125 108.535156 66 108.03125 C 65.804688 107.53125 65.78125 107.453125 65.386719 107.109375 C 65.28125 107.019531 65.097656 106.925781 65 106.726562 C 64.832031 106.375 64.792969 105.242188 64.921875 104.808594 C 65.050781 104.386719 65.585938 103.851562 66 103.507812 C 66.414062 103.164062 66.871094 102.832031 67.390625 102.507812 C 67.714844 102.308594 68.179688 101.96875 68.390625 101.972656 C 68.722656 101.980469 69.707031 102.804688 70.089844 103.046875 C 70.683594 103.425781 71.390625 103.992188 71.863281 103.964844 C 72.496094 103.933594 72.628906 103.300781 73.019531 102.894531 C 73.648438 102.238281 74.753906 101.652344 75.5625 101.050781 C 76.535156 100.335938 77.601562 99.265625 78.648438 98.523438 C 79.953125 97.597656 81.667969 96.667969 83.277344 95.609375 C 83.605469 95.394531 84.574219 94.582031 84.738281 94.613281 C 85.011719 94.664062 85.351562 95.644531 85.589844 96.148438 C 86.878906 98.894531 88.140625 101.117188 89.441406 103.964844 C 89.636719 104.382812 89.875 104.878906 90.136719 105.574219 C 90.300781 106.003906 90.5625 107.179688 90.753906 107.261719 C 90.988281 107.363281 91.519531 107.109375 91.757812 107.03125 C 92.058594 106.933594 92.375 106.683594 92.605469 106.726562 C 92.863281 106.773438 92.863281 106.988281 93.144531 107.339844 C 93.476562 107.753906 93.796875 108.101562 94.148438 108.566406 C 94.613281 109.1875 95.171875 109.726562 95.6875 110.328125 C 96.058594 110.757812 96.335938 111.230469 96.691406 111.554688 C 97.109375 111.933594 97.816406 112.28125 98.464844 112.628906 C 99.476562 113.171875 100.53125 113.75 102.089844 113.394531 C 102.257812 113.355469 102.652344 113.210938 102.9375 113.089844 C 103.175781 112.984375 103.40625 112.691406 103.632812 112.707031 C 103.933594 112.722656 104 113.128906 104.328125 113.164062 C 104.386719 113.171875 105.199219 112.898438 105.636719 112.707031 C 106.320312 112.402344 106.683594 112.023438 107.253906 111.707031 C 107.777344 111.421875 108.476562 111.175781 109.03125 110.941406 C 111.617188 109.851562 113.746094 108.929688 116.199219 107.722656 C 117.757812 106.957031 119.484375 106.453125 121.519531 106.113281 C 122.976562 105.867188 124 105.558594 125.761719 105.652344 C 126.402344 105.6875 127.15625 105.660156 127.152344 106.265625 C 127.605469 106.308594 128.003906 106.234375 128.539062 106.265625 C 128.699219 106.273438 128.78125 106.402344 128.921875 106.417969 C 129.257812 106.457031 129.8125 106.332031 130.3125 106.417969 C 130.460938 106.445312 130.464844 106.546875 130.542969 106.574219 C 130.65625 106.609375 130.8125 106.53125 130.929688 106.574219 C 131.394531 106.738281 131.898438 107.09375 132.394531 107.339844 C 132.894531 107.589844 133.441406 107.730469 133.933594 107.953125 C 134.847656 108.359375 135.523438 109.1875 136.25 109.257812 C 136.835938 109.3125 137.632812 108.898438 138.097656 108.640625 C 138.660156 108.332031 138.867188 107.769531 138.792969 106.726562 C 138.753906 106.148438 138.507812 105.515625 138.332031 105.039062 C 137.925781 103.953125 137.191406 103.199219 136.402344 102.355469 C 136.304688 102.25 136.1875 102.171875 136.09375 102.050781 C 135.988281 101.914062 135.886719 101.683594 135.863281 101.667969 C 135.746094 101.578125 135.523438 101.667969 135.324219 101.589844 C 135.199219 101.539062 135.113281 101.410156 135.015625 101.359375 C 134.347656 101.015625 133.574219 100.585938 132.855469 100.210938 C 131.90625 99.714844 130.824219 99.214844 130.078125 98.523438 C 130.019531 98.46875 129.839844 98.394531 129.773438 98.292969 C 129.671875 98.144531 129.742188 98.003906 129.617188 97.910156 C 129.558594 97.867188 129.382812 97.929688 129.308594 97.910156 C 129.152344 97.867188 128.976562 97.671875 128.769531 97.527344 C 128.410156 97.277344 128.046875 97.070312 127.765625 96.683594 C 127.660156 96.539062 127.613281 96.34375 127.535156 96.300781 C 127.410156 96.226562 127.152344 96.363281 126.917969 96.300781 C 126.558594 96.203125 126.582031 96.050781 126.378906 96.070312 C 126.195312 96.089844 126.074219 96.214844 125.839844 96.375 C 125.046875 96.925781 124.136719 97.226562 123.527344 97.984375 C 123.054688 98.574219 122.710938 99.839844 121.984375 100.132812 C 121.847656 100.1875 121.476562 100.171875 121.210938 100.210938 C 119.742188 100.417969 117.714844 100.734375 116.046875 100.824219 C 115 100.878906 113.914062 100.925781 112.882812 100.824219 C 111.867188 100.722656 110.894531 100.558594 109.953125 100.671875 C 108.738281 100.816406 107.335938 101.335938 106.328125 101.894531 C 106.140625 102.003906 105.988281 102.164062 105.792969 102.28125 C 105.363281 102.527344 104.847656 102.648438 104.480469 102.894531 C 104.40625 102.941406 104.191406 103.203125 103.941406 103.429688 C 103.78125 103.574219 103.566406 103.726562 103.398438 103.890625 C 103.144531 104.144531 102.527344 105.003906 102.398438 104.964844 C 102.152344 104.886719 102.164062 104.179688 102.089844 103.8125 C 101.992188 103.335938 101.746094 102.820312 101.78125 102.664062 C 101.910156 102.121094 103.167969 101.839844 103.632812 101.511719 C 104.359375 101.003906 104.003906 100.839844 103.476562 99.902344 C 102.894531 98.863281 102.316406 97.652344 101.859375 96.683594 C 100.417969 93.644531 98.984375 91.160156 97.617188 88.019531 C 97.097656 86.828125 96.65625 85.839844 96.382812 84.417969 C 96.300781 83.980469 96.332031 83.460938 96.230469 82.960938 C 96.179688 82.71875 96.007812 82.421875 95.921875 82.117188 C 95.84375 81.84375 95.777344 81.554688 95.6875 81.273438 C 95.515625 80.714844 95.269531 80.199219 95.074219 79.664062 C 94.898438 79.195312 94.769531 78.535156 94.535156 77.976562 C 94.425781 77.734375 94.246094 77.476562 94.148438 77.210938 C 94.015625 76.867188 93.976562 76.441406 93.917969 76.367188 C 93.742188 76.15625 93.136719 76.191406 93.066406 75.910156 C 93.007812 75.648438 93.753906 74.960938 93.917969 74.757812 C 94.433594 74.109375 94.734375 73.9375 94.996094 73.148438 C 95.113281 72.796875 95.316406 72.160156 95.378906 71.691406 C 95.523438 70.683594 95.296875 69.59375 95.226562 68.472656 C 95.136719 66.96875 95.757812 65.964844 96 64.792969 C 96.332031 63.183594 96.242188 61.59375 96.539062 59.65625 C 96.617188 59.144531 96.753906 57.300781 96.921875 57.203125 C 97.140625 57.078125 98.046875 58.105469 98.15625 58.199219 C 98.332031 58.351562 98.597656 58.503906 98.773438 58.660156 C 99.003906 58.867188 99.128906 59.136719 99.3125 59.195312 C 99.527344 59.265625 99.765625 59.0625 100.085938 59.121094 C 100.390625 59.175781 101.371094 60.082031 101.703125 60.347656 C 102.535156 61.003906 103.105469 61.558594 103.707031 62.492188 C 104.050781 63.019531 104.359375 63.636719 104.789062 64.179688 C 105.722656 65.367188 107.003906 66.625 108.179688 67.707031 C 109.089844 68.539062 110.179688 69.332031 111.1875 70.234375 C 111.585938 70.589844 112.105469 71.058594 112.652344 71.539062 C 113.226562 72.039062 113.90625 72.640625 113.964844 72.996094 C 114.066406 73.621094 113.527344 74.238281 113.347656 75.066406 C 113.273438 75.414062 113.261719 75.878906 113.191406 76.292969 C 113.121094 76.722656 112.984375 77.0625 113.039062 77.441406 C 113.105469 77.921875 113.605469 78.484375 113.734375 78.820312 C 113.835938 79.09375 113.8125 79.488281 113.964844 79.894531 C 114.085938 80.222656 114.386719 80.597656 114.582031 80.96875 C 114.832031 81.441406 114.921875 81.871094 115.351562 81.886719 C 115.8125 81.90625 115.875 81.625 115.96875 81.429688 C 116.066406 81.222656 116.035156 80.59375 116.046875 80.585938 C 116.246094 80.402344 116.652344 80.828125 116.972656 80.816406 C 117.175781 80.804688 117.441406 80.457031 117.742188 80.433594 C 117.992188 80.410156 118.316406 80.734375 118.667969 80.664062 C 118.980469 80.597656 119.070312 80.148438 119.363281 79.972656 C 119.476562 79.902344 119.679688 79.921875 119.746094 79.894531 C 120.167969 79.726562 120.691406 78.722656 120.980469 78.210938 C 121.316406 77.613281 121.707031 77.15625 121.597656 76.445312 C 121.515625 75.902344 120.328125 74.90625 119.746094 74.300781 C 119.429688 73.964844 119.125 73.601562 118.820312 73.226562 C 118.203125 72.457031 118.066406 72.230469 117.667969 71.234375 C 117.546875 70.9375 117.417969 70.667969 117.28125 70.464844 C 117.132812 70.25 116.96875 70.125 116.742188 69.929688 C 115.628906 68.980469 114.828125 67.238281 113.964844 65.867188 C 113.226562 64.695312 112.429688 63.542969 111.496094 62.492188 C 111.03125 61.96875 110.546875 61.484375 110.109375 60.960938 C 109.238281 59.921875 108.515625 58.683594 107.5625 57.664062 C 106.816406 56.867188 106.140625 56.214844 105.480469 55.289062 C 105.222656 54.921875 104.886719 54.488281 104.867188 54.367188 C 104.839844 54.195312 105.164062 53.589844 105.019531 52.988281 C 104.871094 52.371094 104.066406 51.878906 103.554688 51.300781 C 103.027344 50.710938 102.523438 50.152344 102.089844 49.691406 C 101.558594 49.128906 100.984375 48.6875 100.472656 48.15625 C 99.945312 47.617188 99.523438 47.003906 99.082031 46.472656 C 98.046875 45.210938 97.046875 44.175781 95.921875 43.40625 C 94.996094 42.773438 94.015625 42.179688 92.527344 42.101562 C 92.09375 42.078125 91.589844 42.242188 91.0625 42.179688 C 90.808594 42.148438 90.570312 41.992188 90.292969 41.871094 C 89.894531 41.699219 89.476562 41.671875 89.136719 41.414062 C 89.011719 41.320312 89.011719 41.136719 88.902344 41.105469 C 88.777344 41.066406 88.546875 41.226562 88.441406 41.183594 C 87.820312 40.917969 87.304688 40.175781 86.820312 39.570312 C 86.605469 39.300781 86.339844 39.011719 86.128906 38.652344 C 85.949219 38.347656 85.644531 37.894531 85.589844 37.65625 C 85.554688 37.515625 85.679688 37.210938 85.664062 36.964844 C 85.648438 36.667969 85.40625 36.144531 85.433594 35.738281 C 85.445312 35.578125 85.449219 35.429688 85.511719 35.28125 C 85.578125 35.125 85.660156 35.136719 85.664062 34.972656 C 85.675781 34.707031 85.421875 34.195312 85.433594 33.824219 C 85.445312 33.503906 85.644531 33.191406 85.664062 32.828125 C 85.726562 31.792969 85.226562 30.667969 84.894531 29.835938 C 84.71875 29.394531 84.625 28.917969 84.433594 28.609375 C 84.179688 28.207031 83.691406 27.761719 83.351562 27.382812 C 83.160156 27.167969 82.980469 26.980469 82.8125 26.769531 C 82.382812 26.226562 82.21875 26.085938 81.578125 25.621094 C 81.03125 25.222656 80.363281 24.816406 79.496094 24.625 C 78.875 24.484375 78.875 25.027344 78.339844 25.082031 C 78.066406 25.113281 78.109375 24.882812 77.722656 24.851562 C 77.429688 24.832031 76.835938 25.101562 76.335938 25.238281 C 74.988281 25.605469 73.804688 26.03125 72.867188 26.847656 C 72.1875 27.4375 71.691406 28.15625 71.09375 28.839844 C 70.894531 29.0625 70.613281 29.242188 70.472656 29.453125 C 70.207031 29.863281 69.75 30.894531 69.859375 31.371094 C 69.929688 31.671875 70.058594 31.839844 70.320312 31.984375 C 70.3125 31.980469 70.550781 32.058594 70.550781 32.058594 C 70.609375 32.125 70.546875 32.386719 70.628906 32.519531 C 70.726562 32.675781 70.910156 32.683594 70.9375 32.75 C 71.15625 33.246094 71.152344 33.8125 71.246094 34.28125 C 71.433594 35.226562 71.582031 36.023438 72.246094 36.507812 C 72.65625 36.800781 72.703125 36.679688 72.941406 37.195312 C 73.054688 37.441406 73.214844 38.042969 73.25 38.421875 C 73.296875 38.941406 73.121094 39.496094 73.25 39.726562 C 73.515625 40.195312 73.832031 39.847656 74.175781 40.109375 C 74.21875 40.140625 74.371094 40.449219 74.5625 40.722656 C 74.800781 41.066406 75.085938 41.480469 75.410156 41.871094 C 75.59375 42.097656 75.808594 42.21875 75.871094 42.332031 C 76.121094 42.757812 76.160156 43.515625 76.71875 43.710938 C 77.398438 43.949219 78.1875 43.480469 78.726562 43.175781 C 79.25 42.878906 79.570312 42.746094 79.882812 43.480469 C 79.980469 43.707031 80.085938 44.359375 80.035156 44.480469 C 79.945312 44.710938 79.441406 44.835938 79.34375 44.859375 C 79.074219 44.929688 78.691406 44.886719 78.339844 44.9375 C 75.964844 45.277344 74.765625 46.347656 73.171875 47.925781 C 72.402344 48.695312 71.644531 49.378906 70.785156 50.074219 C 70.515625 50.292969 70.144531 50.476562 69.933594 50.6875 C 69.832031 50.789062 69.882812 50.882812 69.78125 50.992188 C 69.710938 51.078125 69.632812 51.105469 69.550781 51.222656 C 69.429688 51.394531 69.324219 51.714844 69.242188 51.761719 C 68.976562 51.910156 68.375 51.851562 67.929688 51.835938 C 67.476562 51.828125 67.027344 51.742188 66.621094 51.761719 C 65.230469 51.832031 63.644531 52.335938 61.992188 52.605469 C 61.195312 52.734375 60.355469 52.8125 59.527344 52.910156 C 57.625 53.140625 55.503906 53.316406 53.28125 53.21875 C 52.574219 53.1875 51.902344 53.03125 51.429688 53.140625 C 51.0625 53.226562 50.519531 53.703125 50.117188 53.984375 C 49.894531 54.140625 49.71875 54.296875 49.5 54.445312 C 48.941406 54.828125 48.773438 54.980469 48.34375 55.671875 C 47.976562 56.265625 47.628906 56.847656 47.574219 57.816406 "/>
</g>
</g>
</svg>
