<svg width="50" height="39" viewBox="0 0 50 39" fill="none" xmlns="http://www.w3.org/2000/svg">
<path d="M12.5006 10.6626C12.4094 10.6644 12.3188 10.6457 12.2339 10.6075C12.1491 10.5693 12.0716 10.5124 12.006 10.44C11.8735 10.2938 11.7972 10.0935 11.794 9.88311C11.7908 9.67271 11.8609 9.46946 11.9888 9.31808C12.1168 9.1667 12.2921 9.07959 12.4763 9.07591C15.8837 9.03242 19.2837 8.70363 22.649 8.09219C22.7088 8.07794 22.77 8.07314 22.8309 8.07791C23.6745 8.12887 24.4928 8.42368 25.2094 8.9347C25.3277 9.0329 25.4158 9.17127 25.4613 9.33008C25.5067 9.48889 25.5071 9.66003 25.4624 9.8191C25.4176 9.97817 25.3301 10.1171 25.2122 10.2159C25.0943 10.3148 24.9522 10.3687 24.8059 10.3698C24.6424 10.3698 24.4838 10.3057 24.3566 10.1881C23.8885 9.88163 23.3641 9.70424 22.8254 9.67011C19.415 10.2822 15.9706 10.6139 12.5187 10.6626H12.5006Z" fill="black"/>
<path d="M37.9029 29.5357C37.3104 29.5365 36.7329 29.3227 36.2536 28.9248L36.1043 28.8066C36.0848 28.7915 36.0522 28.7614 36.0216 28.7273L27.8475 22.0023C27.7712 21.9428 27.706 21.8665 27.6559 21.7778C27.6057 21.6892 27.5715 21.59 27.5553 21.4861C27.5391 21.3822 27.5412 21.2756 27.5615 21.1726C27.5819 21.0697 27.62 20.9724 27.6736 20.8864C27.7272 20.8005 27.7954 20.7276 27.874 20.6722C27.9526 20.6167 28.0401 20.5797 28.1314 20.5633C28.2226 20.5469 28.3159 20.5516 28.4056 20.5769C28.4953 20.6022 28.5796 20.6477 28.6537 20.7108L29.2093 21.163L36.8584 27.4643C36.8813 27.483 36.9031 27.5035 36.9237 27.5254L37.0564 27.6309C37.3576 27.8775 37.7301 27.9827 38.0972 27.9247C38.4643 27.8667 38.7979 27.6499 39.0292 27.3191C39.1711 27.1145 39.2678 26.874 39.3112 26.6177C39.3546 26.3614 39.3434 26.097 39.2785 25.8467C39.2005 25.5314 39.0393 25.2513 38.8167 25.0447L27.8836 14.8687C23.6969 17.4074 20.731 16.1016 19.315 15.0679C19.081 14.8939 18.8911 14.6528 18.764 14.3688C18.637 14.0848 18.5774 13.7677 18.5911 13.4491C18.6048 13.1305 18.6913 12.8216 18.8421 12.5532C18.9929 12.2847 19.2027 12.0661 19.4505 11.9192L25.7087 8.12234C26.1081 7.88361 26.545 7.73757 26.9941 7.69264C27.4432 7.64771 27.8956 7.70477 28.3253 7.86054L32.0273 9.23299C33.1172 9.6425 34.2993 9.59383 35.3605 9.09574L36.973 8.34129C37.0574 8.30176 37.1478 8.2816 37.239 8.28197C37.3302 8.28234 37.4205 8.30323 37.5047 8.34346C37.5888 8.38368 37.6652 8.44244 37.7295 8.51639C37.7937 8.59034 37.8446 8.67803 37.8792 8.77445C37.9139 8.87087 37.9315 8.97413 37.9312 9.07834C37.9309 9.18255 37.9126 9.28566 37.8774 9.3818C37.8421 9.47793 37.7907 9.56521 37.726 9.63863C37.6612 9.71206 37.5845 9.77019 37.5001 9.80973L35.889 10.5634C34.5224 11.206 32.9997 11.269 31.596 10.7411L27.8975 9.36944C27.6442 9.27852 27.3776 9.24574 27.1132 9.27297C26.8487 9.3002 26.5916 9.38691 26.3566 9.5281L20.097 13.3257C20.0621 13.3445 20.0325 13.3739 20.0114 13.4108C19.9903 13.4476 19.9786 13.4904 19.9775 13.5344C19.9747 13.5742 19.9814 13.6141 19.9971 13.6498C20.0128 13.6855 20.0368 13.7155 20.0664 13.7367C21.5247 14.8013 24.0281 15.5819 27.6121 13.2297C27.734 13.1497 27.8743 13.1139 28.0144 13.1269C28.1545 13.1399 28.2878 13.2013 28.3968 13.3027L39.6882 23.8142C40.131 24.2223 40.453 24.7763 40.6104 25.4009C40.7352 25.8925 40.7561 26.4108 40.6716 26.9135C40.5871 27.4161 40.3996 27.8887 40.1243 28.2925C39.8621 28.6803 39.5255 28.994 39.1403 29.2096C38.7551 29.4251 38.3318 29.5367 37.9029 29.5357Z" fill="black"/>
<path d="M35.0293 33.2127C34.4408 33.2134 33.8668 33.0046 33.387 32.6153L25.8802 26.5306C25.7335 26.4073 25.6351 26.2231 25.6061 26.0178C25.5771 25.8124 25.6199 25.6022 25.7253 25.4325C25.8307 25.2629 25.9901 25.1472 26.1694 25.1106C26.3486 25.074 26.5333 25.1192 26.6836 25.2367L34.1904 31.3206C34.5054 31.5557 34.8877 31.6425 35.2574 31.5631C35.6271 31.4837 35.9556 31.2442 36.1743 30.8945C36.3931 30.5449 36.4851 30.1122 36.4311 29.6869C36.3772 29.2616 36.1815 28.8766 35.8848 28.6122L28.4031 22.4521C28.2652 22.3247 28.1752 22.1418 28.1516 21.9409C28.1279 21.7401 28.1725 21.5366 28.2761 21.3721C28.3796 21.2076 28.5344 21.0946 28.7086 21.0563C28.8827 21.018 29.0631 21.0573 29.2128 21.1661L36.6966 27.3271C37.1838 27.73 37.5467 28.2988 37.7334 28.9519C37.9202 29.605 37.9211 30.3088 37.736 30.9626C37.5509 31.6163 37.1894 32.1863 36.7033 32.5908C36.2172 32.9953 35.6314 33.2136 35.03 33.2143L35.0293 33.2127Z" fill="black"/>
<path d="M31.7884 36.3916C31.2294 36.3914 30.6839 36.1956 30.2252 35.8307L23.4983 30.5075C23.3468 30.3877 23.2432 30.204 23.2103 29.9969C23.1773 29.7898 23.2177 29.5762 23.3226 29.4032C23.4275 29.2301 23.5883 29.1118 23.7695 29.0741C23.9508 29.0365 24.1378 29.0827 24.2893 29.2025L31.0162 34.5257C31.1639 34.6424 31.3303 34.7247 31.5059 34.768C31.6815 34.8112 31.8628 34.8145 32.0395 34.7777C32.2162 34.7408 32.3848 34.6646 32.5357 34.5533C32.6866 34.442 32.8168 34.2978 32.9189 34.129C33.1222 33.7905 33.2011 33.3745 33.1388 32.9703C33.0764 32.5661 32.8778 32.206 32.5856 31.9672L25.8913 26.5425C25.8152 26.483 25.7502 26.4068 25.7001 26.3184C25.6501 26.2299 25.6159 26.131 25.5997 26.0273C25.5834 25.9236 25.5854 25.8173 25.6056 25.7145C25.6257 25.6117 25.6635 25.5145 25.7169 25.4286C25.7702 25.3427 25.838 25.2698 25.9163 25.2141C25.9946 25.1584 26.0817 25.1211 26.1728 25.1044C26.2638 25.0876 26.3568 25.0917 26.4465 25.1165C26.5361 25.1413 26.6205 25.1861 26.6948 25.2486L33.3891 30.6733C33.9783 31.1544 34.3789 31.8803 34.5047 32.6951C34.6305 33.5099 34.4716 34.3486 34.062 35.031C33.8573 35.372 33.5955 35.6633 33.2917 35.888C32.9878 36.1127 32.648 36.2663 32.2919 36.34C32.1258 36.3746 31.9572 36.3919 31.7884 36.3916Z" fill="black"/>
<path d="M27.8204 39C27.3346 38.9973 26.8578 38.849 26.4378 38.57L22.7039 36.1107C22.5457 36.0048 22.4306 35.8316 22.3837 35.6291C22.3368 35.4266 22.362 35.2111 22.4537 35.0297C22.5454 34.8482 22.6962 34.7156 22.8731 34.6607C23.0501 34.6058 23.2389 34.6331 23.3983 34.7367L27.1316 37.196C27.4472 37.3995 27.8199 37.454 28.1702 37.3479C28.5205 37.2417 28.8206 36.9834 29.0065 36.628C29.1831 36.2872 29.2392 35.8824 29.1635 35.496C29.0877 35.1096 28.8858 34.7708 28.5989 34.5487L23.8281 30.7733C23.7532 30.7139 23.6892 30.6383 23.6398 30.5507C23.5904 30.4631 23.5566 30.3653 23.5403 30.2628C23.5241 30.1603 23.5256 30.0551 23.5449 29.9533C23.5642 29.8515 23.6009 29.755 23.6528 29.6693C23.7047 29.5837 23.7709 29.5106 23.8476 29.4542C23.9243 29.3978 24.0099 29.3592 24.0996 29.3406C24.1894 29.322 24.2814 29.3237 24.3706 29.3458C24.4597 29.3678 24.5441 29.4097 24.6191 29.469L29.3891 33.2437C29.8734 33.6266 30.2379 34.1762 30.4297 34.8124C30.6215 35.4485 30.6305 36.138 30.4553 36.7804C30.2802 37.4228 29.9301 37.9845 29.456 38.3838C28.9819 38.783 28.4087 38.9989 27.8197 39H27.8204Z" fill="black"/>
<path d="M19.9574 38.5264C19.3893 38.5274 18.8344 38.3303 18.3669 37.9615C17.8994 37.5928 17.5416 37.0698 17.3411 36.4625C17.1406 35.8553 17.1071 35.1926 17.2451 34.563C17.383 33.9334 17.6858 33.3668 18.113 32.939L19.9678 31.0827C20.2434 30.8062 20.564 30.5945 20.9113 30.4596C21.2586 30.3247 21.6257 30.2693 21.9917 30.2964C22.3577 30.3236 22.7154 30.4329 23.0445 30.618C23.3735 30.8031 23.6674 31.0605 23.9094 31.3754C24.1513 31.6903 24.3366 32.0566 24.4546 32.4533C24.5727 32.8501 24.6211 33.2695 24.5973 33.6876C24.5734 34.1058 24.4777 34.5144 24.3156 34.8903C24.1535 35.2662 23.9281 35.6019 23.6525 35.8783L21.7976 37.7386C21.2885 38.2482 20.6343 38.5283 19.9574 38.5264ZM21.8094 31.876C21.4689 31.875 21.1397 32.016 20.8838 32.2726L19.0282 34.1314C18.8896 34.2703 18.7763 34.4391 18.6948 34.628C18.6133 34.817 18.5651 35.0224 18.5531 35.2326C18.5411 35.4428 18.5654 35.6537 18.6247 35.8531C18.684 36.0526 18.7771 36.2368 18.8987 36.3951C19.1443 36.7149 19.4911 36.9102 19.8627 36.9379C20.0467 36.9517 20.2313 36.9239 20.4059 36.8561C20.5805 36.7884 20.7417 36.682 20.8803 36.5431L22.7351 34.6827C22.9491 34.4676 23.1006 34.1831 23.1696 33.8671C23.2385 33.5512 23.2216 33.2187 23.1211 32.914C23.0206 32.6093 22.8413 32.3467 22.607 32.1613C22.3727 31.9759 22.0945 31.8764 21.8094 31.876Z" fill="black"/>
<path d="M15.7533 36.3654C15.6915 36.3654 15.6297 36.3654 15.5679 36.359C15.2017 36.3328 14.8436 36.224 14.5144 36.0388C14.1852 35.8536 13.8914 35.5958 13.6499 35.2801C13.4046 34.9652 13.2162 34.5979 13.0954 34.1996C12.9747 33.8012 12.924 33.3795 12.9462 32.9587C12.9685 32.5379 13.0633 32.1263 13.2251 31.7474C13.387 31.3686 13.6128 31.03 13.8895 30.751L16.988 27.6436C17.2636 27.3672 17.5842 27.1554 17.9315 27.0205C18.2788 26.8856 18.6459 26.8302 19.0119 26.8574C19.3779 26.8846 19.7356 26.9938 20.0647 27.179C20.3937 27.3641 20.6876 27.6214 20.9296 27.9363L20.4275 28.4861L20.949 27.9625C21.1911 28.2774 21.3765 28.6436 21.4946 29.0403C21.6128 29.437 21.6613 29.8565 21.6375 30.2746C21.6137 30.6928 21.5181 31.1015 21.356 31.4774C21.1939 31.8533 20.9685 32.189 20.6928 32.4654L17.5915 35.5729C17.0841 36.0847 16.4302 36.3666 15.7533 36.3654ZM18.8262 28.4369C18.486 28.4359 18.1573 28.5769 17.9019 28.8336L14.8033 31.941C14.5959 32.155 14.4481 32.4339 14.3784 32.7431C14.3086 33.0523 14.32 33.3781 14.4111 33.68C14.5022 33.9818 14.669 34.2464 14.8908 34.4408C15.1125 34.6352 15.3794 34.7508 15.6582 34.7732C15.8423 34.7876 16.0271 34.76 16.2018 34.6919C16.3765 34.6237 16.5375 34.5165 16.6755 34.3765L19.7741 31.2691C19.9127 31.1301 20.026 30.9613 20.1076 30.7723C20.1891 30.5833 20.2372 30.3778 20.2492 30.1676C20.2612 29.9573 20.2368 29.7464 20.1775 29.5469C20.1181 29.3475 20.0249 29.1633 19.9032 29.0049L19.8831 28.9788C19.7619 28.821 19.6146 28.6922 19.4496 28.5997C19.2847 28.5073 19.1054 28.453 18.922 28.4401C18.8894 28.4385 18.8567 28.4377 18.8255 28.4377L18.8262 28.4369Z" fill="black"/>
<path d="M12.2492 33.4531C12.1881 33.4531 12.1263 33.4531 12.0638 33.4467C11.6976 33.4206 11.3395 33.3117 11.0103 33.1265C10.6811 32.9414 10.3873 32.6835 10.1458 32.3678L10.0701 32.2647C9.58199 31.6286 9.33494 30.7972 9.38325 29.9531C9.43156 29.109 9.77128 28.3214 10.3277 27.7634L13.92 24.1609C14.1956 23.8844 14.5162 23.6726 14.8635 23.5376C15.2107 23.4027 15.5779 23.3472 15.9439 23.3744C16.3099 23.4016 16.6677 23.5109 16.9967 23.6961C17.3258 23.8812 17.6197 24.1387 17.8616 24.4537L17.9401 24.556C18.4284 25.192 18.6755 26.0235 18.6272 26.8676C18.5789 27.7117 18.2391 28.4994 17.6824 29.0573L14.0902 32.6598C13.5821 33.1725 12.9271 33.4547 12.2492 33.4531ZM15.7582 24.955C15.418 24.954 15.0893 25.0951 14.8339 25.3517L11.2416 28.9542C10.9614 29.235 10.7903 29.6314 10.766 30.0563C10.7416 30.4812 10.866 30.8997 11.1117 31.2199L11.1902 31.3222C11.4361 31.6415 11.7829 31.8361 12.1544 31.8635C12.5259 31.8909 12.8916 31.7487 13.1714 31.4682L16.7637 27.8657C16.9024 27.7268 17.0157 27.558 17.0972 27.369C17.1787 27.18 17.2269 26.9745 17.2389 26.7642C17.2509 26.554 17.2265 26.3431 17.1671 26.1436C17.1077 25.9441 17.0146 25.7599 16.8929 25.6016L16.8158 25.5008C16.6945 25.3424 16.5469 25.213 16.3816 25.1201C16.2163 25.0273 16.0365 24.9728 15.8526 24.9598C15.82 24.9566 15.7894 24.955 15.7582 24.955Z" fill="black"/>
<path d="M9.23053 29.922C9.16942 29.922 9.10692 29.922 9.04512 29.9149C8.4904 29.8749 7.9585 29.648 7.51663 29.2628C7.07477 28.8776 6.74278 28.3514 6.56263 27.7507C6.38248 27.15 6.36225 26.5018 6.5045 25.888C6.64675 25.2742 6.94509 24.7223 7.36182 24.3021L9.61108 22.0467C9.88667 21.7702 10.2073 21.5584 10.5545 21.4234C10.9018 21.2885 11.2689 21.233 11.635 21.2602C12.001 21.2874 12.3588 21.3967 12.6878 21.5819C13.0169 21.767 13.3107 22.0245 13.5527 22.3395L13.577 22.3712C13.819 22.686 14.0044 23.0523 14.1226 23.449C14.2407 23.8457 14.2893 24.2651 14.2655 24.6833C14.2417 25.1014 14.146 25.5102 13.9839 25.8861C13.8218 26.262 13.5964 26.5977 13.3207 26.8741L11.0715 29.1295C10.5633 29.642 9.90837 29.9239 9.23053 29.922ZM11.4527 22.84C11.1126 22.8391 10.7839 22.9801 10.5284 23.2367L8.27916 25.4921C8.14052 25.6311 8.0272 25.7999 7.94567 25.9889C7.86414 26.1779 7.81601 26.3834 7.80401 26.5936C7.79202 26.8039 7.8164 27.0148 7.87576 27.2143C7.93513 27.4137 8.02832 27.5979 8.15 27.7563C8.27072 27.9196 8.41862 28.0539 8.58512 28.1515C8.75163 28.249 8.93342 28.3078 9.11997 28.3245C9.30652 28.3412 9.49412 28.3154 9.67187 28.2486C9.84963 28.1818 10.014 28.0754 10.1555 27.9355L12.4048 25.6801C12.5434 25.5412 12.6567 25.3724 12.7383 25.1834C12.8198 24.9944 12.8679 24.7889 12.8799 24.5786C12.8919 24.3684 12.8675 24.1575 12.8082 23.958C12.7488 23.7585 12.6556 23.5743 12.5339 23.416L12.5096 23.3843C12.3883 23.2256 12.2407 23.096 12.0752 23.003C11.9098 22.91 11.7298 22.8554 11.5458 22.8424C11.5117 22.8416 11.4805 22.84 11.4492 22.84H11.4527Z" fill="black"/>
<path d="M7.97084 25.5389C7.82053 25.5393 7.67424 25.4836 7.55418 25.3803L5.18131 23.3176C5.10872 23.2545 5.04772 23.1757 5.00178 23.0857C4.95585 22.9957 4.92588 22.8962 4.9136 22.793C4.90132 22.6898 4.90695 22.5848 4.93019 22.484C4.95342 22.3832 4.9938 22.2887 5.04902 22.2058C5.16054 22.0383 5.32573 21.9283 5.50825 21.8999C5.59862 21.8859 5.69053 21.8924 5.77872 21.9189C5.86692 21.9454 5.94968 21.9916 6.02227 22.0547L8.39513 24.1173C8.51202 24.2174 8.59828 24.3571 8.64164 24.5165C8.685 24.6759 8.68324 24.8469 8.63663 25.0051C8.59001 25.1633 8.5009 25.3006 8.38199 25.3976C8.26307 25.4946 8.12041 25.5463 7.97431 25.5453L7.97084 25.5389Z" fill="black"/>
<path d="M39.9438 26.4179C39.8065 26.4179 39.6722 26.3713 39.5581 26.2842C39.4439 26.197 39.3549 26.0731 39.3024 25.9282C39.2498 25.7832 39.2361 25.6237 39.2628 25.4699C39.2896 25.316 39.3557 25.1747 39.4528 25.0637L43.3493 20.6108C43.4802 20.4663 43.6557 20.3863 43.8377 20.3881C44.0198 20.3899 44.194 20.4734 44.3227 20.6205C44.4515 20.7676 44.5245 20.9665 44.5261 21.1745C44.5277 21.3825 44.4577 21.5829 44.3312 21.7326L40.4348 26.1839C40.3704 26.2578 40.2939 26.3166 40.2097 26.3567C40.1254 26.3969 40.0351 26.4177 39.9438 26.4179Z" fill="black"/>
<path d="M45.2569 24.7718C45.1381 24.772 45.0213 24.7373 44.9176 24.6712C44.8139 24.6051 44.7268 24.5097 44.6645 24.3942L36.1855 8.63879C36.0959 8.47212 36.0634 8.27352 36.0942 8.08113C36.1249 7.88873 36.2168 7.71609 36.3522 7.59636L44.7499 0.166114C44.8421 0.0845528 44.9508 0.0308208 45.0659 0.00987252C45.1811 -0.0110758 45.299 0.00143407 45.4088 0.0462492C45.5186 0.0910643 45.6167 0.166742 45.6942 0.266302C45.7717 0.365862 45.8259 0.4861 45.852 0.615928L49.9818 21.2002C50.016 21.3677 50.0017 21.5434 49.941 21.7008C49.8802 21.8582 49.7763 21.9888 49.645 22.0729L45.5958 24.6726C45.4921 24.7384 45.3754 24.7725 45.2569 24.7718ZM37.6952 8.41349L45.4978 22.9114L48.5124 20.9757L44.7416 2.18036L37.6952 8.41349Z" fill="black"/>
<path d="M4.74382 25.0534C4.62488 25.0533 4.50796 25.0184 4.40424 24.9519L0.355021 22.3561C0.223655 22.272 0.119769 22.1415 0.0590213 21.9841C-0.00172681 21.8267 -0.0160456 21.651 0.0182229 21.4835L4.14869 0.901523C4.17477 0.771695 4.22903 0.651458 4.30649 0.551897C4.38395 0.452337 4.4821 0.37666 4.5919 0.331845C4.7017 0.28703 4.81961 0.274519 4.93475 0.295468C5.0499 0.316416 5.15857 0.370149 5.25075 0.45171L13.6492 7.88117C13.7846 8.00089 13.8765 8.17353 13.9072 8.36593C13.938 8.55833 13.9054 8.75692 13.8159 8.92359L5.33617 24.679C5.2736 24.7939 5.18632 24.8887 5.08264 24.9542C4.97896 25.0198 4.86232 25.0539 4.74382 25.0534ZM1.48833 21.2629L4.50285 23.1978L12.3055 8.69908L5.25909 2.46595L1.48833 21.2629Z" fill="black"/>
</svg>
